<svg version="1.2" baseProfile="tiny" xmlns="http://www.w3.org/2000/svg" viewBox="0 0 12 4"><path d="M1.47.57h.2l1.3 2.82h-.22l-.36-.79H.74l-.35.78H.17L1.47.57zm.83 1.84L1.57.79.83 2.41H2.3zM3.57.58h1.18c.34 0 .62.11.79.28.13.13.21.32.21.53 0 .47-.35.74-.82.8l.92 1.2h-.27l-.89-1.17h-.91v1.16h-.21V.58zm1.15 1.46c.47 0 .82-.24.82-.65 0-.38-.3-.61-.8-.61h-.96v1.26h.94zm1.62-.06c0-.76.56-1.45 1.41-1.45s1.4.68 1.4 1.45c0 .76-.56 1.45-1.41 1.45s-1.4-.67-1.4-1.45zm2.6 0c0-.69-.5-1.26-1.2-1.26s-1.19.57-1.19 1.26c0 .69.5 1.26 1.2 1.26s1.19-.56 1.19-1.26zm.74 1l.14-.16c.31.28.59.42 1 .42.42 0 .71-.24.71-.56 0-.3-.16-.47-.79-.6-.67-.14-.94-.36-.94-.79 0-.42.38-.74.9-.74.41 0 .68.11.96.34l-.13.16a1.2 1.2 0 00-.84-.32c-.42 0-.69.24-.69.54 0 .3.15.48.82.61.65.13.92.36.92.78 0 .45-.39.76-.93.76-.45 0-.79-.14-1.13-.44z" fill="#FFF"/></svg>