<svg version="1.1" id="Слой_1" xmlns="http://www.w3.org/2000/svg" x="0" y="0" viewBox="0 0 30 30" xml:space="preserve"><style>.st0{fill:#fff}</style><path class="st0" d="M8.5 28.9c.8 0 1.7-.1 2.5-.2.2 0 4.6-.8 6.6-4.5 0 0 1.7-3.5-1.2-6.2 0 0-2-1.9-2.9-2.4-.1-.1-.7-.6-.7-1.3 0-.4.2-.8.7-1.2.1-.1 2.8-1.7 3.3-4.3 0 0 .5-2.2-.8-4.3-.2-.3-.7-1.2-1-1s.3.9.4 1c1.3 1.9.9 4 .9 4.1-.5 2.3-2.7 3.7-3.1 4-.6.5-.9 1.1-.9 1.7 0 1 .8 1.7.9 1.7.7.5 2.6 2.2 2.8 2.4 2.6 2.5 1.1 5.5 1.1 5.6-1.8 3.4-6.2 4.2-6.2 4.2-5.8.8-8.3-1.4-8.3-1.4-1.1-1-1.6-2.1-1.6-3.3 0-1.7 1.2-2.9 1.4-3.1 1.9-2.3 7.9-2.5 7.9-2.5h.6l-.4-.4c-1.7-1.8-.7-3.4-.7-3.4l.3-.4-2.3.1c-2.5-.2-3.8-2-3.8-2.1-2.1-2.8-.7-5.9-.7-6 1.5-3.8 6.3-3.9 6.4-3.9h8.2l-1 .6c-.1.1-2 1.1-2 1.2s.2.3.2.3c.1 0 1.5-.8 2.1-1.1l2.7-1.5H9.6c-.1 0-5.3.1-6.9 4.3 0 0-1.5 3.5.8 6.3.1.1 1.5 2.1 4.3 2.3h1.4c-.2.7-.4 1.9.6 3.2-1.5.1-6.1.5-7.8 2.6 0 0-1.5 1.4-1.5 3.4 0 1.3.6 2.5 1.8 3.7.1.1 1.9 1.8 6.2 1.8z"/><path class="st0" d="M13.5 10.6c.4-1.2.4-2.6-.1-4-.4-1.4-1.2-2.6-2.2-3.3-1-.8-2.2-1-3.2-.7-2.1.6-3.1 3.5-2.1 6.4.4 1.4 1.2 2.5 2.2 3.3.7.5 1.5.8 2.3.8.3 0 .6 0 .9-.1 1-.3 1.8-1.2 2.2-2.4zm-2.4 1.9c-.9.3-1.8.1-2.7-.6-.9-.7-1.6-1.8-2-3-.8-2.6 0-5.1 1.8-5.7.2-.2.5-.2.7-.2 1.6 0 3.3 1.5 4 3.8.4 1.3.4 2.6.1 3.7-.3 1-1 1.7-1.9 2zM4 21.1c0 .1-.7 1.6 0 3.2.5 1.2 1.7 2.1 3.5 2.7.1 0 1.2.4 2.7.4 1.7 0 3.2-.5 4.4-1.5.1 0 1.3-1.1 1.2-2.7 0-1-.5-2-1.6-2.9l-2.5-1.9h-.1c-.5-.1-5.5-.7-7.6 2.7zm9.9-.4c.9.8 1.4 1.6 1.4 2.5 0 1.3-1 2.2-1.1 2.3-2.8 2.3-6.5 1-6.6.9C6 25.9 5 25.1 4.5 24c-.5-1.2-.1-2.5 0-2.7 1.8-2.9 6.4-2.5 7-2.5l2.4 1.9zM25.7 2.5h-2.2v3.7h-3.7v2.2h3.7v3.7h2.2V8.4h3.7V6.2h-3.7V2.5zm3.1 4.2v1.1h-3.7v3.7H24V7.9h-3.7V6.7H24V3.1h1.1v3.7h3.7v-.1z"/></svg>