<svg version="1.1" id="Слой_1" xmlns="http://www.w3.org/2000/svg" x="0" y="0" viewBox="0 0 30 30" xml:space="preserve"><style>.st0{fill:#fff}</style><path class="st0" d="M28.3 2.3v22.9c0 2.1-1.6 3.8-3.5 3.8h-20c-2 0-3.5-1.7-3.5-3.8V4.8C1.3 2.7 2.8 1 4.8 1h20.3c3 0 3.8 2.8 3.8 2.7C28.9.2 25.4.4 25.1.4H4.8C2.5.4.6 2.4.6 4.8v20.4c.1 2.4 1.9 4.3 4.2 4.3h19.9c2.3 0 4.2-2 4.2-4.4V3.7"/><path class="st0" d="M14.8 20.8c3.2 0 5.8-2.6 5.8-5.8S18 9.2 14.8 9.2 9 11.8 9 15c.1 3.2 2.6 5.8 5.8 5.8zm0-10.9c2.8 0 5.2 2.3 5.2 5.2 0 2.8-2.3 5.2-5.2 5.2S9.7 17.9 9.7 15c0-2.8 2.3-5.1 5.1-5.1z"/><path class="st0" d="M6.9 12.4H3.5V25c0 .7.7 1 1.1 1.1h20.3c.8 0 1.1-.7 1.1-1.1V12.3h-3.3l.1.4c1 4.3-1.6 7.5-1.7 7.6-2.1 2.8-6.1 3-6.1 3h-.1c-3.1 0-5.3-1.9-5.3-2-4.1-3.4-2.7-8.4-2.7-8.5v-.4zm2.2 9.4c.1.1 2.4 2.1 5.7 2.1h.1c.2 0 4.3-.2 6.6-3.1.1-.1 2.8-3.3 1.9-7.8h1.9v12c0 .1-.1.5-.5.5H4.6s-.5-.1-.5-.5V13h2c-.2 1.4-.7 5.7 3 8.8zm12-18c-.8 0-1 .7-1.1 1.1v3.8c0 .8.7 1 1 1h4c.6 0 .8-.5.9-.8v-4c0-.7-.6-1-1-1l-3.8-.1zm4.3 1v3.9c0 .1-.1.3-.3.3h-4c-.1 0-.4-.1-.4-.4V4.9c0-.1.1-.5.5-.5H25s.4 0 .4.4z"/></svg>