<svg version="1.1" id="Слой_1" xmlns="http://www.w3.org/2000/svg" x="0" y="0" viewBox="0 0 30 30" xml:space="preserve"><style>.st0{fill:none;stroke:#fff;stroke-width:.5;stroke-miterlimit:10}</style><circle class="st0" cx="15" cy="7.8" r="4.7"/><circle class="st0" cx="15" cy="7.8" r="6.6"/><path class="st0" d="M7.8 14.5c4 4.5 10.5 4.5 14.5 0M6.7 16.4c-1.6-1.7.3-2.6 1-1.9m15.5 1.9c1.6-1.7-.3-2.6-1-1.9m-9.3 5.2c-2.1 2.7-4.3 5.5-6.4 8.2 0 0-.2.3-.2.6 0 .2.1.4.3.6.4.3.9.2 1.2-.1 2.3-3 4.7-6 7-9m-8.1-3.6c1.2 1.2 2.6 2.1 4.1 2.7 0 0 1.2.4 2.2.6m3.9 0c1-.2 2.2-.6 2.2-.6 1.5-.6 2.9-1.5 4.1-2.7m-6.1 3.3c2.1 2.7 4.3 5.5 6.4 8.2 0 0 .2.3.2.6 0 .2-.1.4-.3.6-.4.3-.9.2-1.2-.1-2.3-3-4.7-6-7-9"/><path fill="none" stroke="#fff" stroke-width=".25" stroke-miterlimit="10" d="M14.7 19.9h.6"/></svg>