<svg xmlns="http://www.w3.org/2000/svg" viewBox="0 0 30 30"><path d="M29.3 9.1c.3-.7.4-1.2.2-1.5-.2-.4-.8-.5-1.3-.5h-4.5c-.2-.1-1.3-.2-1.8 1.1-.3.8-1.4 3.7-3.4 5.7-.1.1-.3.3-.5.2-.1 0-.4-.3-.4-1.4V8.1s.1-.7-.4-1.3c-.4-.4-.9-.6-1.6-.6h-3.7c-.1 0-1.8.1-2.1 1.3l-.1.5h.4c.3 0 .6.1.9.3.3.3.5.7.6 1.4.2 2 .1 3.5-.1 4-.1.3-.3.5-.4.5-.1 0-.4 0-1.1-1-.6-.8-1.2-1.7-1.5-2.3-2.2-4.5-2.1-3.8-2.3-3.7-.3.2-.1.1 1.8 3.9.4.7 1 1.6 1.6 2.5.7.9 1.2 1.2 1.6 1.2.5-.1.7-.5.8-.9.3-.9.2-3.3.1-4.3-.1-.8-.3-1.4-.8-1.8-.2-.2-.5-.3-.8-.4.4-.5 1.4-.5 1.4-.5s1.7-.1 3.6 0c.6 0 1 .2 1.2.4.3.4.3.9.3.9 0 .3-.1 3 0 4.6 0 1.3.4 1.7.8 1.9.4.1.8 0 1.1-.3 2.1-2 3.2-5 3.5-5.9s1-.8 1.1-.8h4.6c.5 0 .8.1.8.2.1.1.1.3-.2 1-.6 1.3-3 4.4-4 5.5-1.1 1.3-.2 2.4.2 2.7l.1.1c.5.5 2 1.8 3.4 3.5.4.5.6 1 .5 1.3-.1.4-.7.5-.8.5h-3.5c-1.7 0-2.1-.4-2.5-.8l-1-1c-.3-.3-.6-.7-1.1-1.3-.6-.7-1.3-.9-1.8-.7-.7.3-1.1 1.1-1.1 2.2 0 1.3 0 1.5-2 1.5-4.1 0-6.5-2.1-8.5-4.4C4.5 15.6 1.4 9.2 1 8.1c-.1 0-.2-.2-.1-.3.1-.2.5-.2.7-.2h4.6c.2 0 .3-.1.3-.3.1-.1-.1-.2-.3-.3H1.6c-.1 0-.8 0-1.2.4-.2.3-.2.6 0 1.1.5 1.2 3.6 7.6 5.7 10 2 2.2 4.6 4.6 8.9 4.6 2.2-.1 2.6-.4 2.6-2.1 0-.8.3-1.5.7-1.7.4-.2.9.2 1.2.6.5.6.9 1 1.1 1.3.5.5.7.8 1 1.1.6.5 1.2.9 2.9.9h3.6s1-.2 1.3-.9c.2-.5 0-1.1-.6-1.8-1.4-1.7-2.9-3.1-3.4-3.6l-.1-.1-.1-.1c-.4-.4-.9-1.1-.1-2 1.1-1.1 3.5-4.3 4.2-5.6z" fill="#fff"/></svg>