<svg version="1.1" id="Слой_1" xmlns="http://www.w3.org/2000/svg" x="0" y="0" viewBox="0 0 30 30" xml:space="preserve"><style>.st0{fill:#fff}</style><path class="st0" d="M14.8 9.9c.8 0 1.4-.6 1.4-1.4 0-.8-.6-1.4-1.4-1.4-.8 0-1.4.6-1.4 1.4 0 .8.6 1.4 1.4 1.4zm0-2.3c.5 0 .9.4.9.9s-.4.9-.9.9-.9-.4-.9-.9.4-.9.9-.9zm-8 2.3c.8 0 1.4-.6 1.4-1.4 0-.8-.6-1.4-1.4-1.4s-1.4.6-1.4 1.4.7 1.4 1.4 1.4zm0-2.3c.5 0 .9.4.9.9s-.4.9-.9.9c-.5.1-.9-.4-.9-.9s.4-.9.9-.9z"/><path class="st0" d="M4.2 18.3l-.8 2.5c-.1.1-.2.6 0 .8.1.1.2.1.3.1.2 0 .5-.1.7-.3.9-.6 2.4-1.4 2.8-1.6.5.2 2.1.7 4 .5h.3l-.1-.3c-.4-.9-.7-4.3 2.2-7.2 2.7-2.7 7.2-2.6 7.2-2.6h.3L21 10c0-.1-1.7-7.7-10.1-7.7H9.8C5.2 2.7 1.7 5.5.7 9.5c-.9 3.5.5 6.9 3.5 8.8zM1.1 9.6C2 5.8 5.4 3.1 9.8 2.8h1.1c7.3 0 9.2 5.7 9.6 7-1.2 0-4.8.3-7.2 2.8-2.5 2.5-2.9 5.8-2.4 7.4-1.9.2-3.6-.5-3.6-.5h-.1l-.2-.1c-.3.2-1.9 1.1-2.9 1.7l-.4.2c0-.1 0-.2.1-.3l.9-2.9-.1-.1c-3-1.8-4.3-5.1-3.5-8.4z"/><path class="st0" d="M24.3 25.4c0 .1 1.5 1.1 1.7 1.2.1 0 .7.5 1 .5.1 0 .2 0 .2-.1.2-.2.2-.5.1-.7-.2-.7-.4-1.6-.6-2.1.6-.4 2.9-2.5 2.9-5.8 0-2.1-1.2-4.2-3-5.7-1.5-1.2-4.2-2.5-8.3-1.5-4.3 1-6.2 4.1-6.5 6.7-.3 3 1.1 5.7 3.9 7.1 3.5 1.7 6.2 1.3 7.5 1 2.3-.6 1.3-.8 1.3-.9 0 0-1 .5-1.3.5-1.3.3-3.9.6-7.2-1-2.6-1.3-4-3.8-3.7-6.6.3-2.5 2-5.4 6.1-6.4 3.9-.9 6.5.3 7.9 1.4 1.7 1.4 2.8 3.4 2.8 5.3 0 3.5-2.8 5.5-2.9 5.5l.1.1v.2c.1.3.4 1.4.6 2.2v.2c-.2-.1-2.1-1.3-2.2-1.4"/><path class="st0" d="M23.7 14.3c-.7 0-1.3.6-1.3 1.3 0 .7.6 1.3 1.3 1.3.7 0 1.3-.6 1.3-1.3.1-.7-.5-1.3-1.3-1.3zm0 2.3c-.5 0-.9-.4-.9-.9s.4-.9.9-.9.9.4.9.9-.4.9-.9.9zm-7.4-.9c0 .7.6 1.3 1.3 1.3.7 0 1.3-.6 1.3-1.3s-.6-1.3-1.3-1.3c-.7-.1-1.3.5-1.3 1.3zm2.2 0c0 .5-.4.9-.9.9s-.9-.4-.9-.9.4-.9.9-.9.9.4.9.9z"/></svg>