<?xml version="1.0" encoding="utf-8"?>
<!-- Generator: Adobe Illustrator 20.1.0, SVG Export Plug-In . SVG Version: 6.00 Build 0)  -->
<svg version="1.2" baseProfile="tiny" id="Слой_1"
	 xmlns="http://www.w3.org/2000/svg" xmlns:xlink="http://www.w3.org/1999/xlink" x="0px" y="0px" viewBox="0 0 12 4"
	 xml:space="preserve">
<g>
	<path fill="#FFFFFF" d="M1.47,0.57h0.2l1.3,2.82H2.75L2.39,2.6H0.74L0.39,3.38H0.17L1.47,0.57z M2.3,2.41L1.57,0.79L0.83,2.41H2.3z
		"/>
	<path fill="#FFFFFF" d="M3.57,0.58h1.18c0.34,0,0.62,0.11,0.79,0.28c0.13,0.13,0.21,0.32,0.21,0.53c0,0.47-0.35,0.74-0.82,0.8
		l0.92,1.2H5.58L4.69,2.22H3.78v1.16H3.57V0.58z M4.72,2.04c0.47,0,0.82-0.24,0.82-0.65c0-0.38-0.3-0.61-0.8-0.61H3.78v1.26H4.72z"
		/>
	<path fill="#FFFFFF" d="M6.34,1.98c0-0.76,0.56-1.45,1.41-1.45s1.4,0.68,1.4,1.45c0,0.76-0.56,1.45-1.41,1.45S6.34,2.76,6.34,1.98z
		 M8.94,1.98c0-0.69-0.5-1.26-1.2-1.26S6.55,1.29,6.55,1.98c0,0.69,0.5,1.26,1.2,1.26S8.94,2.68,8.94,1.98z"/>
	<path fill="#FFFFFF" d="M9.68,2.98l0.14-0.16c0.31,0.28,0.59,0.42,1,0.42c0.42,0,0.71-0.24,0.71-0.56c0-0.3-0.16-0.47-0.79-0.6
		c-0.67-0.14-0.94-0.36-0.94-0.79c0-0.42,0.38-0.74,0.9-0.74c0.41,0,0.68,0.11,0.96,0.34l-0.13,0.16c-0.26-0.23-0.53-0.32-0.84-0.32
		C10.27,0.73,10,0.97,10,1.27c0,0.3,0.15,0.48,0.82,0.61c0.65,0.13,0.92,0.36,0.92,0.78c0,0.45-0.39,0.76-0.93,0.76
		C10.36,3.42,10.02,3.28,9.68,2.98z"/>
</g>
</svg>
