<?xml version="1.0" encoding="utf-8"?>
<!-- Generator: Adobe Illustrator 20.1.0, SVG Export Plug-In . SVG Version: 6.00 Build 0)  -->
<svg version="1.1" id="Слой_1" xmlns="http://www.w3.org/2000/svg" xmlns:xlink="http://www.w3.org/1999/xlink" x="0px" y="0px"
	 viewBox="0 0 100 100" style="enable-background:new 0 0 100 100;" xml:space="preserve">
<style type="text/css">
	.st0{fill:none;stroke:#44A8F2;stroke-width:2;stroke-miterlimit:10;}
</style>
<g>
	<path class="st0" d="M86.4,84.3H13.6C7.2,84.3,2,79.1,2,72.7V27.3c0-6.4,5.2-11.6,11.6-11.6h72.8c6.4,0,11.6,5.2,11.6,11.6v45.4
		C98,79.1,92.8,84.3,86.4,84.3z"/>
	<path class="st0" d="M95.4,19.6C80.8,34.2,66.2,48.8,51.7,63.3c-0.7,0.8-2.5,0.8-3.3,0C33.8,48.8,19.3,34.3,4.7,19.7"/>
	<path class="st0" d="M65.8,49.1c10,10,20.1,20.1,30.1,30.1"/>
	<path class="st0" d="M4.1,79.2c10-10,20-20,30-30"/>
</g>
</svg>
