<?xml version="1.0" encoding="utf-8"?>
<!-- Generator: Adobe Illustrator 20.1.0, SVG Export Plug-In . SVG Version: 6.00 Build 0)  -->
<svg version="1.1" id="Слой_1" xmlns="http://www.w3.org/2000/svg" xmlns:xlink="http://www.w3.org/1999/xlink" x="0px" y="0px"
	 viewBox="0 0 30 30" style="enable-background:new 0 0 30 30;" xml:space="preserve">
<style type="text/css">
	.st0{fill:#FFFFFF;}
</style>
<path class="st0" d="M21.9,5.6V0.3h-4.7c-4.7,0-6.3,3.3-6.3,6.3v2.9H8.1v5.7h2.8v14.4h6.6V15.3h4l0.6-5.7h-4.6V6.9
	c0-0.9,0.5-1,0.9-1h3.2C21.8,5.9,21.9,5.7,21.9,5.6c0-0.3-0.3-0.4-0.6-0.4h-2.9c-0.8,0-1.6,0.4-1.6,1.7v3.3h4.5l-0.5,4.4h-4v14.3
	h-5.3V14.6H8.7v-4.4h2.8V6.6c0-1.3,0.4-5.7,5.7-5.7h4.1v4.7"/>
</svg>
