<?xml version="1.0" encoding="utf-8"?>
<!-- Generator: Adobe Illustrator 20.1.0, SVG Export Plug-In . SVG Version: 6.00 Build 0)  -->
<svg version="1.1" id="Слой_1" xmlns="http://www.w3.org/2000/svg" xmlns:xlink="http://www.w3.org/1999/xlink" x="0px" y="0px"
	 viewBox="0 0 30 30" style="enable-background:new 0 0 30 30;" xml:space="preserve">
<style type="text/css">
	.st0{fill:#FFFFFF;}
</style>
<path class="st0" d="M8.5,28.9L8.5,28.9c0.8,0,1.7-0.1,2.5-0.2c0.2,0,4.6-0.8,6.6-4.5c0,0,1.7-3.5-1.2-6.2c0,0-2-1.9-2.9-2.4
	c-0.1-0.1-0.7-0.6-0.7-1.3c0-0.4,0.2-0.8,0.7-1.2c0.1-0.1,2.8-1.7,3.3-4.3c0,0,0.5-2.2-0.8-4.3c-0.2-0.3-0.7-1.2-1-1s0.3,0.9,0.4,1
	l0,0c1.3,1.9,0.9,4,0.9,4.1c-0.5,2.3-2.7,3.7-3.1,4l0,0c-0.6,0.5-0.9,1.1-0.9,1.7c0,1,0.8,1.7,0.9,1.7l0,0c0.7,0.5,2.6,2.2,2.8,2.4
	c2.6,2.5,1.1,5.5,1.1,5.6c-1.8,3.4-6.2,4.2-6.2,4.2c-5.8,0.8-8.3-1.4-8.3-1.4c-1.1-1-1.6-2.1-1.6-3.3c0-1.7,1.2-2.9,1.4-3.1l0,0
	c1.9-2.3,7.9-2.5,7.9-2.5h0.6l-0.4-0.4c-1.7-1.8-0.7-3.4-0.7-3.4l0.3-0.4l-2.3,0.1c-2.5-0.2-3.8-2-3.8-2.1c-2.1-2.8-0.7-5.9-0.7-6
	c1.5-3.8,6.3-3.9,6.4-3.9h8.2l-1,0.6c-0.1,0.1-2,1.1-2,1.2s0.2,0.3,0.2,0.3c0.1,0,1.5-0.8,2.1-1.1l2.7-1.5H9.6
	c-0.1,0-5.3,0.1-6.9,4.3c0,0-1.5,3.5,0.8,6.3C3.6,12,5,14,7.8,14.2h1.4c-0.2,0.7-0.4,1.9,0.6,3.2C8.3,17.5,3.7,17.9,2,20
	c0,0-1.5,1.4-1.5,3.4c0,1.3,0.6,2.5,1.8,3.7C2.4,27.2,4.2,28.9,8.5,28.9z"/>
<path class="st0" d="M13.5,10.6c0.4-1.2,0.4-2.6-0.1-4C13,5.2,12.2,4,11.2,3.3c-1-0.8-2.2-1-3.2-0.7C5.9,3.2,4.9,6.1,5.9,9
	c0.4,1.4,1.2,2.5,2.2,3.3c0.7,0.5,1.5,0.8,2.3,0.8c0.3,0,0.6,0,0.9-0.1C12.3,12.7,13.1,11.8,13.5,10.6z M11.1,12.5
	c-0.9,0.3-1.8,0.1-2.7-0.6c-0.9-0.7-1.6-1.8-2-3c-0.8-2.6,0-5.1,1.8-5.7C8.4,3,8.7,3,8.9,3c1.6,0,3.3,1.5,4,3.8
	c0.4,1.3,0.4,2.6,0.1,3.7C12.7,11.5,12,12.2,11.1,12.5z"/>
<path class="st0" d="M4,21.1L4,21.1c0,0.1-0.7,1.6,0,3.2c0.5,1.2,1.7,2.1,3.5,2.7c0.1,0,1.2,0.4,2.7,0.4c1.7,0,3.2-0.5,4.4-1.5
	c0.1,0,1.3-1.1,1.2-2.7c0-1-0.5-2-1.6-2.9l-2.5-1.9l0,0h-0.1C11.1,18.3,6.1,17.7,4,21.1z M13.9,20.7c0.9,0.8,1.4,1.6,1.4,2.5
	c0,1.3-1,2.2-1.1,2.3c-2.8,2.3-6.5,1-6.6,0.9C6,25.9,5,25.1,4.5,24c-0.5-1.2-0.1-2.5,0-2.7l0,0c1.8-2.9,6.4-2.5,7-2.5L13.9,20.7z"/>
<path class="st0" d="M25.7,2.5h-2.2v3.7h-3.7v2.2h3.7v3.7h2.2V8.4h3.7V6.2h-3.7V2.5z M28.8,6.7v1.1h-3.7v3.7H24V7.9h-3.7V6.7H24V3.1
	h1.1v3.7h3.7C28.8,6.8,28.8,6.7,28.8,6.7z"/>
</svg>
