<?xml version="1.0" encoding="utf-8"?>
<!-- Generator: Adobe Illustrator 20.1.0, SVG Export Plug-In . SVG Version: 6.00 Build 0)  -->
<svg version="1.1" id="Слой_1" xmlns="http://www.w3.org/2000/svg" xmlns:xlink="http://www.w3.org/1999/xlink" x="0px" y="0px"
	viewBox="0 0 20 20" style="enable-background:new 0 0 20 20;" xml:space="preserve">
<style type="text/css">
	.st0{fill:none;stroke:#FFFFFF;stroke-width:1.5;}
	.st1{fill:none;stroke:#FFFFFF;}
</style>
<title>Group 5-NEW</title>
<desc>Created with Sketch.</desc>
<g id="Page-1_1_">
	<g id="Group-5-NEW" transform="translate(1.000000, 1.000000)">
		<g id="Page-1">
			<g id="Group-4">
				<circle id="Oval-2-Copy-9" class="st0" cx="9" cy="9" r="9"/>
				<path id="Line" class="st1" d="M0.5,9.5h17"/>
				<path id="Line-Copy" class="st1" d="M9,1v17"/>
				<path id="Line-Copy-2" class="st1" d="M13.1,1.3c0,0,1.4,3,1.4,8.1S13,16.8,13,16.8"/>
				<path id="Line-Copy-4" class="st1" d="M16.4,13c0,0-2.9,1.4-7.7,1.4s-7-1.5-7-1.5"/>
				<path id="Line-Copy-9" class="st1" d="M1.6,4.9c0,0,2.9-1.4,7.7-1.4s7,1.5,7,1.5"/>
				<path id="Line-Copy-3" class="st1" d="M4.9,1c0,0-1.4,3-1.4,8.1S5,16.5,5,16.5"/>
			</g>
		</g>
	</g>
</g>
</svg>
