<?xml version="1.0" encoding="utf-8"?>
<!-- Generator: Adobe Illustrator 20.1.0, SVG Export Plug-In . SVG Version: 6.00 Build 0)  -->
<svg version="1.1" id="Слой_1" xmlns="http://www.w3.org/2000/svg" xmlns:xlink="http://www.w3.org/1999/xlink" x="0px" y="0px"
	 viewBox="0 0 30 30" style="enable-background:new 0 0 30 30;" xml:space="preserve">
<style type="text/css">
	.st0{fill:none;stroke:#FFFFFF;stroke-width:0.5;stroke-miterlimit:10;}
	.st1{fill:none;stroke:#FFFFFF;stroke-width:0.25;stroke-miterlimit:10;}
</style>
<circle class="st0" cx="15" cy="7.8" r="4.7"/>
<circle class="st0" cx="15" cy="7.8" r="6.6"/>
<path class="st0" d="M6.7,16.4"/>
<path class="st0" d="M7.8,14.5c4,4.5,10.5,4.5,14.5,0"/>
<path class="st0" d="M6.7,16.4c-1.6-1.7,0.3-2.6,1-1.9"/>
<path class="st0" d="M23.2,16.4c1.6-1.7-0.3-2.6-1-1.9"/>
<path class="st0" d="M12.9,19.7c-2.1,2.7-4.3,5.5-6.4,8.2c0,0-0.2,0.3-0.2,0.6c0,0.2,0.1,0.4,0.3,0.6l0,0c0.4,0.3,0.9,0.2,1.2-0.1
	c2.3-3,4.7-6,7-9"/>
<g>
	<path class="st0" d="M6.7,16.4c1.2,1.2,2.6,2.1,4.1,2.7c0,0,1.2,0.4,2.2,0.6"/>
</g>
<g>
	<path class="st0" d="M16.9,19.7c1-0.2,2.2-0.6,2.2-0.6c1.5-0.6,2.9-1.5,4.1-2.7"/>
</g>
<path class="st0" d="M17.1,19.7c2.1,2.7,4.3,5.5,6.4,8.2c0,0,0.2,0.3,0.2,0.6c0,0.2-0.1,0.4-0.3,0.6l0,0c-0.4,0.3-0.9,0.2-1.2-0.1
	c-2.3-3-4.7-6-7-9"/>
<line class="st1" x1="14.7" y1="19.9" x2="15.3" y2="19.9"/>
</svg>
