<?xml version="1.0" encoding="utf-8"?>
<!-- Generator: Adobe Illustrator 20.1.0, SVG Export Plug-In . SVG Version: 6.00 Build 0)  -->
<svg version="1.1" id="Слой_1" xmlns="http://www.w3.org/2000/svg" xmlns:xlink="http://www.w3.org/1999/xlink" x="0px" y="0px"
	 viewBox="0 0 30 30" style="enable-background:new 0 0 30 30;" xml:space="preserve">
<style type="text/css">
	.st0{fill:#FFFFFF;}
</style>
<path class="st0" d="M14.8,9.9c0.8,0,1.4-0.6,1.4-1.4c0-0.8-0.6-1.4-1.4-1.4c-0.8,0-1.4,0.6-1.4,1.4C13.4,9.3,14,9.9,14.8,9.9z
	 M14.8,7.6c0.5,0,0.9,0.4,0.9,0.9s-0.4,0.9-0.9,0.9S13.9,9,13.9,8.5S14.3,7.6,14.8,7.6z"/>
<path class="st0" d="M6.8,9.9c0.8,0,1.4-0.6,1.4-1.4c0-0.8-0.6-1.4-1.4-1.4S5.4,7.7,5.4,8.5S6.1,9.9,6.8,9.9z M6.8,7.6
	c0.5,0,0.9,0.4,0.9,0.9S7.3,9.4,6.8,9.4C6.3,9.5,5.9,9,5.9,8.5S6.3,7.6,6.8,7.6z"/>
<path class="st0" d="M4.2,18.3l-0.8,2.5c-0.1,0.1-0.2,0.6,0,0.8c0.1,0.1,0.2,0.1,0.3,0.1c0.2,0,0.5-0.1,0.7-0.3
	c0.9-0.6,2.4-1.4,2.8-1.6c0.5,0.2,2.1,0.7,4,0.5h0.3L11.4,20c-0.4-0.9-0.7-4.3,2.2-7.2c2.7-2.7,7.2-2.6,7.2-2.6h0.3L21,10
	c0-0.1-1.7-7.7-10.1-7.7c-0.4,0-0.7,0-1.1,0C5.2,2.7,1.7,5.5,0.7,9.5C-0.2,13,1.2,16.4,4.2,18.3z M1.1,9.6C2,5.8,5.4,3.1,9.8,2.8
	c0.4,0,0.8,0,1.1,0c7.3,0,9.2,5.7,9.6,7c-1.2,0-4.8,0.3-7.2,2.8c-2.5,2.5-2.9,5.8-2.4,7.4c-1.9,0.2-3.6-0.5-3.6-0.5H7.2L7,19.4
	c-0.3,0.2-1.9,1.1-2.9,1.7c-0.2,0.1-0.4,0.2-0.4,0.2c0-0.1,0-0.2,0.1-0.3l0.9-2.9L4.6,18C1.6,16.2,0.3,12.9,1.1,9.6z"/>
<path class="st0" d="M24.3,25.4c0,0.1,1.5,1.1,1.7,1.2c0.1,0,0.7,0.5,1,0.5c0.1,0,0.2,0,0.2-0.1c0.2-0.2,0.2-0.5,0.1-0.7
	c-0.2-0.7-0.4-1.6-0.6-2.1c0.6-0.4,2.9-2.5,2.9-5.8c0-2.1-1.2-4.2-3-5.7c-1.5-1.2-4.2-2.5-8.3-1.5c-4.3,1-6.2,4.1-6.5,6.7
	c-0.3,3,1.1,5.7,3.9,7.1c3.5,1.7,6.2,1.3,7.5,1c2.3-0.6,1.3-0.8,1.3-0.9c0,0-1,0.5-1.3,0.5c-1.3,0.3-3.9,0.6-7.2-1
	c-2.6-1.3-4-3.8-3.7-6.6c0.3-2.5,2-5.4,6.1-6.4c3.9-0.9,6.5,0.3,7.9,1.4c1.7,1.4,2.8,3.4,2.8,5.3c0,3.5-2.8,5.5-2.9,5.5l0.1,0.1v0.2
	l0,0c0.1,0.3,0.4,1.4,0.6,2.2c0,0.1,0,0.2,0,0.2c-0.2-0.1-2.1-1.3-2.2-1.4"/>
<path class="st0" d="M23.7,14.3c-0.7,0-1.3,0.6-1.3,1.3c0,0.7,0.6,1.3,1.3,1.3c0.7,0,1.3-0.6,1.3-1.3C25.1,14.9,24.5,14.3,23.7,14.3
	z M23.7,16.6c-0.5,0-0.9-0.4-0.9-0.9s0.4-0.9,0.9-0.9s0.9,0.4,0.9,0.9S24.2,16.6,23.7,16.6z"/>
<path class="st0" d="M16.3,15.7c0,0.7,0.6,1.3,1.3,1.3c0.7,0,1.3-0.6,1.3-1.3s-0.6-1.3-1.3-1.3C16.9,14.3,16.3,14.9,16.3,15.7z
	 M18.5,15.7c0,0.5-0.4,0.9-0.9,0.9s-0.9-0.4-0.9-0.9s0.4-0.9,0.9-0.9C18.1,14.8,18.5,15.2,18.5,15.7z"/>
</svg>
